<mxfile host="app.diagrams.net" agent="Mozilla/5.0 (Windows NT 10.0; Win64; x64) AppleWebKit/537.36 (KHTML, like Gecko) Chrome/130.0.0.0 Safari/537.36" version="24.8.3">
  <diagram name="페이지-1" id="PNMwG0dznezkgApgFguq">
    <mxGraphModel dx="1687" dy="918" grid="1" gridSize="10" guides="1" tooltips="1" connect="1" arrows="1" fold="1" page="1" pageScale="1" pageWidth="827" pageHeight="1169" math="0" shadow="0">
      <root>
        <mxCell id="0" />
        <mxCell id="1" parent="0" />
        <mxCell id="5oQ-d2psGQRA80VaCwxz-69" value="" style="rounded=0;whiteSpace=wrap;html=1;" vertex="1" parent="1">
          <mxGeometry x="90" y="80" width="940" height="1250" as="geometry" />
        </mxCell>
        <mxCell id="5oQ-d2psGQRA80VaCwxz-2" value="레스토랑 검색" style="ellipse;whiteSpace=wrap;html=1;" vertex="1" parent="1">
          <mxGeometry x="390" y="140" width="130" height="60" as="geometry" />
        </mxCell>
        <mxCell id="5oQ-d2psGQRA80VaCwxz-4" value="&amp;lt;&amp;lt;extend&amp;gt;&amp;gt;" style="rounded=0;orthogonalLoop=1;jettySize=auto;html=1;entryX=1;entryY=0.5;entryDx=0;entryDy=0;dashed=1;" edge="1" parent="1" source="5oQ-d2psGQRA80VaCwxz-11" target="5oQ-d2psGQRA80VaCwxz-34">
          <mxGeometry relative="1" as="geometry" />
        </mxCell>
        <mxCell id="5oQ-d2psGQRA80VaCwxz-5" value="&amp;lt;&amp;lt;extend&amp;gt;&amp;gt;" style="rounded=0;orthogonalLoop=1;jettySize=auto;html=1;entryX=1;entryY=0.5;entryDx=0;entryDy=0;dashed=1;" edge="1" parent="1" source="5oQ-d2psGQRA80VaCwxz-11" target="5oQ-d2psGQRA80VaCwxz-2">
          <mxGeometry relative="1" as="geometry" />
        </mxCell>
        <mxCell id="5oQ-d2psGQRA80VaCwxz-9" value="&amp;lt;&amp;lt;extend&amp;gt;&amp;gt;" style="rounded=0;orthogonalLoop=1;jettySize=auto;html=1;entryX=1;entryY=0.5;entryDx=0;entryDy=0;dashed=1;" edge="1" parent="1" source="5oQ-d2psGQRA80VaCwxz-11" target="5oQ-d2psGQRA80VaCwxz-27">
          <mxGeometry relative="1" as="geometry" />
        </mxCell>
        <mxCell id="5oQ-d2psGQRA80VaCwxz-70" value="&amp;lt;&amp;lt;exend&amp;gt;&amp;gt;" style="rounded=0;orthogonalLoop=1;jettySize=auto;html=1;entryX=1;entryY=0.5;entryDx=0;entryDy=0;dashed=1;" edge="1" parent="1" source="5oQ-d2psGQRA80VaCwxz-11" target="5oQ-d2psGQRA80VaCwxz-30">
          <mxGeometry relative="1" as="geometry" />
        </mxCell>
        <mxCell id="5oQ-d2psGQRA80VaCwxz-11" value="레스토랑 정보 확인" style="ellipse;whiteSpace=wrap;html=1;" vertex="1" parent="1">
          <mxGeometry x="810" y="330" width="130" height="60" as="geometry" />
        </mxCell>
        <mxCell id="5oQ-d2psGQRA80VaCwxz-66" style="edgeStyle=orthogonalEdgeStyle;rounded=0;orthogonalLoop=1;jettySize=auto;html=1;entryX=0.5;entryY=1;entryDx=0;entryDy=0;endArrow=block;endFill=0;jumpSize=15;endSize=15;" edge="1" parent="1" source="5oQ-d2psGQRA80VaCwxz-12" target="5oQ-d2psGQRA80VaCwxz-30">
          <mxGeometry relative="1" as="geometry">
            <Array as="points">
              <mxPoint x="545" y="320" />
              <mxPoint x="455" y="320" />
            </Array>
          </mxGeometry>
        </mxCell>
        <mxCell id="5oQ-d2psGQRA80VaCwxz-12" value="키워드 기반 추천" style="ellipse;whiteSpace=wrap;html=1;" vertex="1" parent="1">
          <mxGeometry x="480" y="333" width="130" height="60" as="geometry" />
        </mxCell>
        <mxCell id="5oQ-d2psGQRA80VaCwxz-13" value="&amp;lt;&amp;lt;include&amp;gt;&amp;gt;" style="rounded=0;orthogonalLoop=1;jettySize=auto;html=1;entryX=0;entryY=0.5;entryDx=0;entryDy=0;dashed=1;" edge="1" parent="1" source="5oQ-d2psGQRA80VaCwxz-16" target="5oQ-d2psGQRA80VaCwxz-25">
          <mxGeometry relative="1" as="geometry" />
        </mxCell>
        <mxCell id="5oQ-d2psGQRA80VaCwxz-14" value="&amp;lt;&amp;lt;include&amp;gt;&amp;gt;" style="rounded=0;orthogonalLoop=1;jettySize=auto;html=1;entryX=0;entryY=0.5;entryDx=0;entryDy=0;dashed=1;" edge="1" parent="1" source="5oQ-d2psGQRA80VaCwxz-16" target="5oQ-d2psGQRA80VaCwxz-26">
          <mxGeometry relative="1" as="geometry" />
        </mxCell>
        <mxCell id="5oQ-d2psGQRA80VaCwxz-15" value="&amp;lt;&amp;lt;include&amp;gt;&amp;gt;" style="rounded=0;orthogonalLoop=1;jettySize=auto;html=1;entryX=0;entryY=0.5;entryDx=0;entryDy=0;dashed=1;" edge="1" parent="1" source="5oQ-d2psGQRA80VaCwxz-16" target="5oQ-d2psGQRA80VaCwxz-27">
          <mxGeometry relative="1" as="geometry" />
        </mxCell>
        <mxCell id="5oQ-d2psGQRA80VaCwxz-16" value="관심목록 관리" style="ellipse;whiteSpace=wrap;html=1;" vertex="1" parent="1">
          <mxGeometry x="231" y="460" width="130" height="60" as="geometry" />
        </mxCell>
        <mxCell id="5oQ-d2psGQRA80VaCwxz-17" value="&amp;lt;&amp;lt;include&amp;gt;&amp;gt;" style="rounded=0;orthogonalLoop=1;jettySize=auto;html=1;entryX=0;entryY=0.5;entryDx=0;entryDy=0;dashed=1;" edge="1" parent="1" source="5oQ-d2psGQRA80VaCwxz-21" target="5oQ-d2psGQRA80VaCwxz-32">
          <mxGeometry relative="1" as="geometry" />
        </mxCell>
        <mxCell id="5oQ-d2psGQRA80VaCwxz-18" value="&amp;lt;&amp;lt;include&amp;gt;&amp;gt;" style="rounded=0;orthogonalLoop=1;jettySize=auto;html=1;entryX=0;entryY=0.5;entryDx=0;entryDy=0;dashed=1;" edge="1" parent="1" source="5oQ-d2psGQRA80VaCwxz-21" target="5oQ-d2psGQRA80VaCwxz-33">
          <mxGeometry relative="1" as="geometry" />
        </mxCell>
        <mxCell id="5oQ-d2psGQRA80VaCwxz-19" value="&amp;lt;&amp;lt;include&amp;gt;&amp;gt;" style="rounded=0;orthogonalLoop=1;jettySize=auto;html=1;entryX=0;entryY=0.5;entryDx=0;entryDy=0;dashed=1;" edge="1" parent="1" source="5oQ-d2psGQRA80VaCwxz-21" target="5oQ-d2psGQRA80VaCwxz-34">
          <mxGeometry x="-0.0042" relative="1" as="geometry">
            <mxPoint as="offset" />
          </mxGeometry>
        </mxCell>
        <mxCell id="5oQ-d2psGQRA80VaCwxz-20" value="&amp;lt;&amp;lt;extend&amp;gt;&amp;gt;" style="rounded=0;orthogonalLoop=1;jettySize=auto;html=1;entryX=0;entryY=0.5;entryDx=0;entryDy=0;dashed=1;startArrow=classic;startFill=1;endArrow=none;endFill=0;" edge="1" parent="1" source="5oQ-d2psGQRA80VaCwxz-21" target="5oQ-d2psGQRA80VaCwxz-35">
          <mxGeometry relative="1" as="geometry" />
        </mxCell>
        <mxCell id="5oQ-d2psGQRA80VaCwxz-21" value="방문기록 및 선호도 관리" style="ellipse;whiteSpace=wrap;html=1;" vertex="1" parent="1">
          <mxGeometry x="231" y="790" width="151" height="60" as="geometry" />
        </mxCell>
        <mxCell id="5oQ-d2psGQRA80VaCwxz-22" value="로그인" style="ellipse;whiteSpace=wrap;html=1;" vertex="1" parent="1">
          <mxGeometry x="510" y="998" width="130" height="60" as="geometry" />
        </mxCell>
        <mxCell id="5oQ-d2psGQRA80VaCwxz-23" value="&amp;lt;&amp;lt;include&amp;gt;&amp;gt;" style="rounded=0;orthogonalLoop=1;jettySize=auto;html=1;entryX=0;entryY=0.5;entryDx=0;entryDy=0;dashed=1;" edge="1" parent="1" source="5oQ-d2psGQRA80VaCwxz-24" target="5oQ-d2psGQRA80VaCwxz-53">
          <mxGeometry relative="1" as="geometry" />
        </mxCell>
        <mxCell id="5oQ-d2psGQRA80VaCwxz-24" value="사용자 프로필 전환" style="ellipse;whiteSpace=wrap;html=1;" vertex="1" parent="1">
          <mxGeometry x="231" y="1129" width="130" height="60" as="geometry" />
        </mxCell>
        <mxCell id="5oQ-d2psGQRA80VaCwxz-25" value="관심목록 추가" style="ellipse;whiteSpace=wrap;html=1;" vertex="1" parent="1">
          <mxGeometry x="510" y="400" width="130" height="60" as="geometry" />
        </mxCell>
        <mxCell id="5oQ-d2psGQRA80VaCwxz-26" value="관심목록 삭제" style="ellipse;whiteSpace=wrap;html=1;" vertex="1" parent="1">
          <mxGeometry x="510" y="480" width="130" height="60" as="geometry" />
        </mxCell>
        <mxCell id="5oQ-d2psGQRA80VaCwxz-27" value="관심목록 보기" style="ellipse;whiteSpace=wrap;html=1;" vertex="1" parent="1">
          <mxGeometry x="510" y="560" width="130" height="60" as="geometry" />
        </mxCell>
        <mxCell id="5oQ-d2psGQRA80VaCwxz-30" value="레스토랑 추천" style="ellipse;whiteSpace=wrap;html=1;" vertex="1" parent="1">
          <mxGeometry x="390" y="230" width="130" height="60" as="geometry" />
        </mxCell>
        <mxCell id="5oQ-d2psGQRA80VaCwxz-68" style="edgeStyle=orthogonalEdgeStyle;rounded=0;orthogonalLoop=1;jettySize=auto;html=1;entryX=0.5;entryY=1;entryDx=0;entryDy=0;endArrow=block;endFill=0;endSize=15;" edge="1" parent="1" source="5oQ-d2psGQRA80VaCwxz-31" target="5oQ-d2psGQRA80VaCwxz-30">
          <mxGeometry relative="1" as="geometry">
            <Array as="points">
              <mxPoint x="375" y="320" />
              <mxPoint x="455" y="320" />
            </Array>
          </mxGeometry>
        </mxCell>
        <mxCell id="5oQ-d2psGQRA80VaCwxz-31" value="사용자 선호도 기반 추천" style="ellipse;whiteSpace=wrap;html=1;" vertex="1" parent="1">
          <mxGeometry x="300" y="333" width="150" height="60" as="geometry" />
        </mxCell>
        <mxCell id="5oQ-d2psGQRA80VaCwxz-32" value="방문 기록 추가" style="ellipse;whiteSpace=wrap;html=1;" vertex="1" parent="1">
          <mxGeometry x="510" y="650" width="130" height="60" as="geometry" />
        </mxCell>
        <mxCell id="5oQ-d2psGQRA80VaCwxz-33" value="방문 기록 삭제" style="ellipse;whiteSpace=wrap;html=1;" vertex="1" parent="1">
          <mxGeometry x="510" y="740" width="130" height="60" as="geometry" />
        </mxCell>
        <mxCell id="5oQ-d2psGQRA80VaCwxz-34" value="방문 기록 보기" style="ellipse;whiteSpace=wrap;html=1;" vertex="1" parent="1">
          <mxGeometry x="510" y="830" width="130" height="60" as="geometry" />
        </mxCell>
        <mxCell id="5oQ-d2psGQRA80VaCwxz-35" value="좋아요 / 싫어요" style="ellipse;whiteSpace=wrap;html=1;" vertex="1" parent="1">
          <mxGeometry x="510" y="920" width="130" height="60" as="geometry" />
        </mxCell>
        <mxCell id="5oQ-d2psGQRA80VaCwxz-36" value="&amp;lt;&amp;lt;include&amp;gt;&amp;gt;" style="edgeStyle=orthogonalEdgeStyle;rounded=0;orthogonalLoop=1;jettySize=auto;html=1;entryX=0;entryY=0.5;entryDx=0;entryDy=0;dashed=1;" edge="1" parent="1" source="5oQ-d2psGQRA80VaCwxz-37" target="5oQ-d2psGQRA80VaCwxz-22">
          <mxGeometry relative="1" as="geometry" />
        </mxCell>
        <mxCell id="5oQ-d2psGQRA80VaCwxz-37" value="개인 데이터 불러오기" style="ellipse;whiteSpace=wrap;html=1;" vertex="1" parent="1">
          <mxGeometry x="231" y="998" width="130" height="60" as="geometry" />
        </mxCell>
        <mxCell id="5oQ-d2psGQRA80VaCwxz-38" style="rounded=0;orthogonalLoop=1;jettySize=auto;html=1;entryX=0;entryY=0.5;entryDx=0;entryDy=0;" edge="1" parent="1" source="5oQ-d2psGQRA80VaCwxz-45" target="5oQ-d2psGQRA80VaCwxz-2">
          <mxGeometry relative="1" as="geometry" />
        </mxCell>
        <mxCell id="5oQ-d2psGQRA80VaCwxz-39" style="rounded=0;orthogonalLoop=1;jettySize=auto;html=1;entryX=0;entryY=0.5;entryDx=0;entryDy=0;" edge="1" parent="1" source="5oQ-d2psGQRA80VaCwxz-45" target="5oQ-d2psGQRA80VaCwxz-21">
          <mxGeometry relative="1" as="geometry" />
        </mxCell>
        <mxCell id="5oQ-d2psGQRA80VaCwxz-40" style="rounded=0;orthogonalLoop=1;jettySize=auto;html=1;entryX=0;entryY=0.5;entryDx=0;entryDy=0;" edge="1" parent="1" source="5oQ-d2psGQRA80VaCwxz-45" target="5oQ-d2psGQRA80VaCwxz-16">
          <mxGeometry relative="1" as="geometry" />
        </mxCell>
        <mxCell id="5oQ-d2psGQRA80VaCwxz-41" style="rounded=0;orthogonalLoop=1;jettySize=auto;html=1;entryX=0;entryY=0.5;entryDx=0;entryDy=0;" edge="1" parent="1" source="5oQ-d2psGQRA80VaCwxz-45" target="5oQ-d2psGQRA80VaCwxz-30">
          <mxGeometry relative="1" as="geometry" />
        </mxCell>
        <mxCell id="5oQ-d2psGQRA80VaCwxz-43" style="rounded=0;orthogonalLoop=1;jettySize=auto;html=1;entryX=0;entryY=0.5;entryDx=0;entryDy=0;" edge="1" parent="1" source="5oQ-d2psGQRA80VaCwxz-45" target="5oQ-d2psGQRA80VaCwxz-37">
          <mxGeometry relative="1" as="geometry" />
        </mxCell>
        <mxCell id="5oQ-d2psGQRA80VaCwxz-44" style="rounded=0;orthogonalLoop=1;jettySize=auto;html=1;entryX=0;entryY=0.5;entryDx=0;entryDy=0;" edge="1" parent="1" source="5oQ-d2psGQRA80VaCwxz-45" target="5oQ-d2psGQRA80VaCwxz-24">
          <mxGeometry relative="1" as="geometry" />
        </mxCell>
        <mxCell id="5oQ-d2psGQRA80VaCwxz-45" value="사용자" style="shape=umlActor;verticalLabelPosition=bottom;verticalAlign=top;html=1;outlineConnect=0;" vertex="1" parent="1">
          <mxGeometry x="11" y="330" width="30" height="60" as="geometry" />
        </mxCell>
        <mxCell id="5oQ-d2psGQRA80VaCwxz-46" value="&amp;lt;&amp;lt;extend&amp;gt;&amp;gt;" style="rounded=0;orthogonalLoop=1;jettySize=auto;html=1;entryX=0.5;entryY=1;entryDx=0;entryDy=0;dashed=1;" edge="1" parent="1" source="5oQ-d2psGQRA80VaCwxz-47" target="5oQ-d2psGQRA80VaCwxz-11">
          <mxGeometry relative="1" as="geometry" />
        </mxCell>
        <mxCell id="5oQ-d2psGQRA80VaCwxz-47" value="미디어 컨텐츠 재생" style="ellipse;whiteSpace=wrap;html=1;" vertex="1" parent="1">
          <mxGeometry x="810" y="739.9999999999999" width="130" height="60" as="geometry" />
        </mxCell>
        <mxCell id="5oQ-d2psGQRA80VaCwxz-48" value="&amp;lt;&amp;lt;include&amp;gt;&amp;gt;" style="rounded=0;orthogonalLoop=1;jettySize=auto;html=1;entryX=0.5;entryY=1;entryDx=0;entryDy=0;dashed=1;endArrow=none;endFill=0;startArrow=classic;startFill=1;exitX=0.5;exitY=0;exitDx=0;exitDy=0;" edge="1" parent="1" source="5oQ-d2psGQRA80VaCwxz-49" target="5oQ-d2psGQRA80VaCwxz-47">
          <mxGeometry relative="1" as="geometry">
            <mxPoint x="830.7952225882991" y="861.0885010525603" as="sourcePoint" />
          </mxGeometry>
        </mxCell>
        <mxCell id="5oQ-d2psGQRA80VaCwxz-49" value="재생 기록 저장" style="ellipse;whiteSpace=wrap;html=1;" vertex="1" parent="1">
          <mxGeometry x="810" y="860" width="130" height="60" as="geometry" />
        </mxCell>
        <mxCell id="5oQ-d2psGQRA80VaCwxz-50" style="edgeStyle=orthogonalEdgeStyle;rounded=0;orthogonalLoop=1;jettySize=auto;html=1;exitX=0.5;exitY=1;exitDx=0;exitDy=0;" edge="1" parent="1">
          <mxGeometry relative="1" as="geometry">
            <mxPoint x="806" y="918.8199999999999" as="sourcePoint" />
            <mxPoint x="806" y="918.8199999999999" as="targetPoint" />
          </mxGeometry>
        </mxCell>
        <mxCell id="5oQ-d2psGQRA80VaCwxz-51" value="&amp;lt;&amp;lt;include&amp;gt;&amp;gt;" style="edgeStyle=orthogonalEdgeStyle;rounded=0;orthogonalLoop=1;jettySize=auto;html=1;entryX=1;entryY=0.5;entryDx=0;entryDy=0;startArrow=classic;startFill=1;endArrow=none;endFill=0;dashed=1;" edge="1" parent="1" source="5oQ-d2psGQRA80VaCwxz-52" target="5oQ-d2psGQRA80VaCwxz-24">
          <mxGeometry relative="1" as="geometry" />
        </mxCell>
        <mxCell id="5oQ-d2psGQRA80VaCwxz-52" value="프로필 별 정보 불러오기" style="ellipse;whiteSpace=wrap;html=1;" vertex="1" parent="1">
          <mxGeometry x="500" y="1129" width="150" height="60" as="geometry" />
        </mxCell>
        <mxCell id="5oQ-d2psGQRA80VaCwxz-53" value="프로필 정보 관리" style="ellipse;whiteSpace=wrap;html=1;" vertex="1" parent="1">
          <mxGeometry x="500" y="1218" width="150" height="60" as="geometry" />
        </mxCell>
        <mxCell id="5oQ-d2psGQRA80VaCwxz-54" value="&amp;lt;&amp;lt;include&amp;gt;&amp;gt;" style="rounded=0;orthogonalLoop=1;jettySize=auto;html=1;dashed=1;endArrow=none;endFill=0;startArrow=classic;startFill=1;" edge="1" parent="1" source="5oQ-d2psGQRA80VaCwxz-55" target="5oQ-d2psGQRA80VaCwxz-53">
          <mxGeometry relative="1" as="geometry" />
        </mxCell>
        <mxCell id="5oQ-d2psGQRA80VaCwxz-55" value="프로필 정보 추가" style="ellipse;whiteSpace=wrap;html=1;" vertex="1" parent="1">
          <mxGeometry x="750" y="1127" width="150" height="60" as="geometry" />
        </mxCell>
        <mxCell id="5oQ-d2psGQRA80VaCwxz-56" value="&amp;lt;&amp;lt;include&amp;gt;&amp;gt;" style="rounded=0;orthogonalLoop=1;jettySize=auto;html=1;dashed=1;endArrow=none;endFill=0;startArrow=classic;startFill=1;" edge="1" parent="1" source="5oQ-d2psGQRA80VaCwxz-57" target="5oQ-d2psGQRA80VaCwxz-53">
          <mxGeometry relative="1" as="geometry" />
        </mxCell>
        <mxCell id="5oQ-d2psGQRA80VaCwxz-57" value="프로필 정보 제거" style="ellipse;whiteSpace=wrap;html=1;" vertex="1" parent="1">
          <mxGeometry x="750" y="1218" width="150" height="60" as="geometry" />
        </mxCell>
      </root>
    </mxGraphModel>
  </diagram>
</mxfile>
